<svg width="22" height="22" viewBox="0 0 22 22" fill="none" xmlns="http://www.w3.org/2000/svg">
<path d="M4.58333 16.5007H17.4167V10.1124C17.4167 6.55298 14.5438 3.66732 11 3.66732C7.45617 3.66732 4.58333 6.55298 4.58333 10.1124V16.5007ZM11 1.83398C15.5558 1.83398 19.25 5.54007 19.25 10.1124V18.334H2.75V10.1124C2.75 5.54007 6.44417 1.83398 11 1.83398ZM8.70833 19.2507H13.2917C13.2917 19.8584 13.0502 20.4413 12.6205 20.8711C12.1907 21.3009 11.6078 21.5423 11 21.5423C10.3922 21.5423 9.80932 21.3009 9.37955 20.8711C8.94978 20.4413 8.70833 19.8584 8.70833 19.2507Z" fill="#555555"/>
</svg>
