<svg width="25" height="18" viewBox="0 0 25 18" fill="none" xmlns="http://www.w3.org/2000/svg">
<path d="M13.984 3.4507C12.6425 1.3763 10.2848 0 7.58145 0C3.39438 0 0 3.33102 0 7.43994C0 11.5489 3.39438 14.8798 7.58145 14.8798C8.53675 14.8798 9.43108 14.7003 10.2644 14.4011C9.51238 13.2443 9.08555 11.8879 9.08555 10.4319C9.10587 7.22053 11.1384 4.50785 13.984 3.4507Z" fill="#FFB500"/>
<path d="M16.6874 2.95215C15.7321 2.95215 14.8378 3.13164 14.0045 3.43084C14.7565 4.58772 15.1834 5.94406 15.1834 7.40013C15.1834 10.5716 13.1508 13.2843 10.3052 14.3414C11.6467 16.4158 14.0045 17.7921 16.7078 17.7921C20.8948 17.7921 24.2892 14.4611 24.2892 10.3522C24.2486 6.28316 20.8542 2.95215 16.6874 2.95215Z" fill="#0048FF"/>
</svg>
