<svg width="186" height="39" viewBox="0 0 186 39" fill="none" xmlns="http://www.w3.org/2000/svg">
<path d="M76.558 31.0747H86.4434V27.8902C86.4434 26.1918 87.7441 25.4276 89.4783 25.4276C91.2126 25.4276 92.5133 26.2343 92.5133 27.8902V31.0747H102.399C103.829 31.0747 105 32.1787 105 33.5374C105 34.8536 103.873 36 102.399 36H76.558C75.1706 36 74 34.8536 74 33.5374C74 32.2211 75.1706 31.0747 76.558 31.0747ZM77.5119 24.5784C76.2112 24.5784 75.1706 23.5593 75.1706 22.2855V9.29284C75.1706 8.01905 76.2112 7 77.5119 7H101.488C102.789 7 103.829 8.01905 103.829 9.29284V22.2855C103.829 23.5593 102.789 24.5784 101.488 24.5784H77.5119ZM81.1538 19.6955H97.8028V11.9253H81.1538V19.6955Z" fill="black"/>
<path d="M113 14.2331C113 9.73848 117.267 6.79806 122.378 6.79806C127.489 6.79806 131.8 9.73848 131.8 14.2331V28.3889C131.8 32.8835 127.489 35.7818 122.378 35.7818C117.267 35.7818 113 32.8835 113 28.3889V14.2331ZM119.178 28.0949C119.178 29.9011 120.689 30.9932 122.467 30.9932C124.244 30.9932 125.711 29.9011 125.711 28.0949V14.5691C125.711 12.7628 124.244 11.6287 122.467 11.6287C120.689 11.6287 119.178 12.7628 119.178 14.5691V28.0949ZM136.778 8.94038C136.778 7.26016 138.156 6 139.889 6C141.622 6 143 7.26016 143 8.94038V34.0596C143 35.7398 141.622 37 139.889 37C138.156 37 136.778 35.7398 136.778 34.0596V8.94038Z" fill="black"/>
<path d="M152.991 30.7747C157.401 27.0312 159.584 22.0678 159.584 13.4871V12.1411H154.862C153.481 12.1411 152.323 11.0475 152.323 9.74352C152.323 8.35546 153.481 7.30393 154.862 7.30393H170.498C172.013 7.30393 173.082 8.39752 173.082 9.74352C173.082 11.0475 172.013 12.1411 170.498 12.1411H165.821V13.4871C165.821 22.0678 167.914 26.905 172.369 30.6486C172.993 31.1533 173.438 31.9104 173.438 32.8358C173.438 34.3921 172.235 35.5278 170.498 35.5278C169.696 35.5278 168.894 35.3175 168.404 34.8548C165.821 32.5835 163.905 30.1438 162.702 26.7368C161.5 30.2279 159.629 32.7097 157.045 35.0231C156.555 35.4437 155.709 35.6961 154.951 35.6961C153.214 35.6961 152.011 34.5604 152.011 33.0041C151.922 32.0366 152.368 31.2795 152.991 30.7747ZM175.487 8.94437C175.487 7.26187 176.868 6 178.605 6C180.343 6 181.724 7.26187 181.724 8.94437V17.9457H183.416C184.842 17.9457 186 19.0393 186 20.3853C186 21.7313 184.842 22.825 183.416 22.825H181.724V34.0556C181.724 35.7381 180.343 37 178.605 37C176.868 37 175.487 35.7381 175.487 34.0556V8.94437Z" fill="black"/>
<path d="M30.5314 7.53394C27.6025 3.00488 22.4548 0 16.5526 0C7.41097 0 0 7.27265 0 16.2437C0 25.2147 7.41097 32.4873 16.5526 32.4873C18.6384 32.4873 20.591 32.0954 22.4104 31.4421C20.7685 28.9163 19.8366 25.955 19.8366 22.776C19.8809 15.7646 24.3186 9.84203 30.5314 7.53394Z" fill="#FFB500"/>
<path d="M36.4332 6.44531C34.3475 6.44531 32.3949 6.83721 30.5754 7.49044C32.2174 10.0163 33.1493 12.9776 33.1493 16.1566C33.1493 23.0809 28.7116 29.0035 22.4988 31.3116C25.4277 35.8407 30.5754 38.8455 36.4776 38.8455C45.6193 38.8455 53.0302 31.5729 53.0302 22.6019C52.9415 13.7179 45.5305 6.44531 36.4332 6.44531Z" fill="#0048FF"/>
</svg>
