<svg width="24" height="24" viewBox="0 0 24 24" fill="none" xmlns="http://www.w3.org/2000/svg">
<path d="M20.083 15.1998L21.285 15.9208C21.3591 15.9652 21.4205 16.0281 21.4631 16.1033C21.5058 16.1784 21.5282 16.2634 21.5282 16.3498C21.5282 16.4363 21.5058 16.5212 21.4631 16.5964C21.4205 16.6716 21.3591 16.7344 21.285 16.7788L12.515 22.0408C12.3594 22.1343 12.1814 22.1836 12 22.1836C11.8185 22.1836 11.6405 22.1343 11.485 22.0408L2.71498 16.7788C2.64082 16.7344 2.57944 16.6716 2.53682 16.5964C2.4942 16.5212 2.4718 16.4363 2.4718 16.3498C2.4718 16.2634 2.4942 16.1784 2.53682 16.1033C2.57944 16.0281 2.64082 15.9652 2.71498 15.9208L3.91698 15.1998L12 20.0498L20.083 15.1998ZM20.083 10.4998L21.285 11.2208C21.3591 11.2652 21.4205 11.3281 21.4631 11.4033C21.5058 11.4784 21.5282 11.5634 21.5282 11.6498C21.5282 11.7363 21.5058 11.8212 21.4631 11.8964C21.4205 11.9716 21.3591 12.0344 21.285 12.0788L12 17.6498L2.71498 12.0788C2.64082 12.0344 2.57944 11.9716 2.53682 11.8964C2.4942 11.8212 2.4718 11.7363 2.4718 11.6498C2.4718 11.5634 2.4942 11.4784 2.53682 11.4033C2.57944 11.3281 2.64082 11.2652 2.71498 11.2208L3.91698 10.4998L12 15.3498L20.083 10.4998ZM12.514 1.30883L21.285 6.57083C21.3591 6.61522 21.4205 6.67807 21.4631 6.75326C21.5058 6.82845 21.5282 6.9134 21.5282 6.99983C21.5282 7.08625 21.5058 7.1712 21.4631 7.24639C21.4205 7.32158 21.3591 7.38443 21.285 7.42883L12 12.9998L2.71498 7.42883C2.64082 7.38443 2.57944 7.32158 2.53682 7.24639C2.4942 7.1712 2.4718 7.08625 2.4718 6.99983C2.4718 6.9134 2.4942 6.82845 2.53682 6.75326C2.57944 6.67807 2.64082 6.61522 2.71498 6.57083L11.485 1.30883C11.6405 1.21538 11.8185 1.16602 12 1.16602C12.1814 1.16602 12.3594 1.21538 12.515 1.30883H12.514ZM12 3.33183L5.88698 6.99983L12 10.6678L18.113 6.99983L12 3.33183Z" fill="#555555"/>
</svg>
