<svg width="24" height="24" viewBox="0 0 24 24" fill="none" xmlns="http://www.w3.org/2000/svg">
<path d="M20.083 10.5001L21.285 11.2211C21.3592 11.2655 21.4205 11.3283 21.4632 11.4035C21.5058 11.4787 21.5282 11.5636 21.5282 11.6501C21.5282 11.7365 21.5058 11.8214 21.4632 11.8966C21.4205 11.9718 21.3592 12.0347 21.285 12.0791L12 17.6501L2.71501 12.0791C2.64085 12.0347 2.57947 11.9718 2.53685 11.8966C2.49423 11.8214 2.47183 11.7365 2.47183 11.6501C2.47183 11.5636 2.49423 11.4787 2.53685 11.4035C2.57947 11.3283 2.64085 11.2655 2.71501 11.2211L3.91701 10.5001L12 15.3501L20.083 10.5001ZM20.083 15.2001L21.285 15.9211C21.3592 15.9655 21.4205 16.0283 21.4632 16.1035C21.5058 16.1787 21.5282 16.2636 21.5282 16.3501C21.5282 16.4365 21.5058 16.5214 21.4632 16.5966C21.4205 16.6718 21.3592 16.7347 21.285 16.7791L12.515 22.0411C12.3595 22.1345 12.1815 22.1839 12 22.1839C11.8186 22.1839 11.6405 22.1345 11.485 22.0411L2.71501 16.7791C2.64085 16.7347 2.57947 16.6718 2.53685 16.5966C2.49423 16.5214 2.47183 16.4365 2.47183 16.3501C2.47183 16.2636 2.49423 16.1787 2.53685 16.1035C2.57947 16.0283 2.64085 15.9655 2.71501 15.9211L3.91701 15.2001L12 20.0501L20.083 15.2001ZM12.514 1.30907L21.285 6.57107C21.3592 6.61546 21.4205 6.67832 21.4632 6.75351C21.5058 6.82869 21.5282 6.91364 21.5282 7.00007C21.5282 7.0865 21.5058 7.17145 21.4632 7.24663C21.4205 7.32182 21.3592 7.38468 21.285 7.42907L12 13.0001L2.71501 7.42907C2.64085 7.38468 2.57947 7.32182 2.53685 7.24663C2.49423 7.17145 2.47183 7.0865 2.47183 7.00007C2.47183 6.91364 2.49423 6.82869 2.53685 6.75351C2.57947 6.67832 2.64085 6.61546 2.71501 6.57107L11.485 1.30907C11.6405 1.21563 11.8186 1.16626 12 1.16626C12.1815 1.16626 12.3595 1.21563 12.515 1.30907H12.514Z" fill="black"/>
</svg>
