<svg width="23" height="23" viewBox="0 0 23 23" fill="none" xmlns="http://www.w3.org/2000/svg">
<path d="M15.8122 4.31185C15.8122 3.45905 15.5593 2.6254 15.0854 1.91632C14.6116 1.20724 13.9381 0.654576 13.1502 0.328222C12.3623 0.00186826 11.4952 -0.0835208 10.6587 0.082853C9.82226 0.249227 9.0539 0.659891 8.45083 1.26291C7.84776 1.86594 7.43707 2.63424 7.27068 3.47065C7.10429 4.30707 7.18969 5.17404 7.51607 5.96193C7.84245 6.74981 8.39515 7.42323 9.10428 7.89703C9.81342 8.37082 10.6471 8.6237 11.5 8.6237C12.6437 8.6237 13.7405 8.16942 14.5492 7.36079C15.3579 6.55216 15.8122 5.45543 15.8122 4.31185V4.31185ZM10.4928 10.8294C7.83096 9.1981 3.51105 8.74992 1.33865 8.62628C1.16973 8.61314 0.999904 8.63468 0.839618 8.68959C0.679331 8.74449 0.531969 8.8316 0.40659 8.94555C0.28121 9.0595 0.180463 9.19789 0.110542 9.35221C0.0406205 9.50653 0.00300237 9.67351 0 9.8429L0 19.8507C0.00506433 20.167 0.131321 20.4694 0.352744 20.6954C0.574168 20.9215 0.87388 21.054 1.1901 21.0656C3.15127 21.1686 7.11913 21.5455 9.86254 22.9261C9.95644 22.9763 10.0616 23.0017 10.1681 22.9999C10.2745 22.9981 10.3788 22.9691 10.4709 22.9157C10.563 22.8623 10.6399 22.7862 10.6944 22.6947C10.7489 22.6033 10.7791 22.4994 10.7822 22.3929V11.3446C10.7825 11.2411 10.7561 11.1394 10.7055 11.0491C10.655 10.9589 10.582 10.8832 10.4937 10.8294H10.4928ZM21.6605 8.62628C19.4889 8.74906 15.1716 9.1981 12.5063 10.8294C12.4177 10.8845 12.3446 10.9614 12.2943 11.0528C12.2439 11.1442 12.2179 11.2471 12.2187 11.3515V22.3921C12.2224 22.4981 12.253 22.6015 12.3076 22.6925C12.3622 22.7835 12.4391 22.8591 12.5309 22.9123C12.6227 22.9655 12.7265 22.9945 12.8326 22.9966C12.9387 22.9988 13.0436 22.9739 13.1375 22.9244C15.8792 21.5447 19.8453 21.1677 21.8099 21.0647C22.1262 21.0529 22.4259 20.9202 22.6473 20.694C22.8687 20.4679 22.9949 20.1654 23 19.8489V9.8429C22.9969 9.67347 22.9592 9.50647 22.8891 9.35215C22.8191 9.19783 22.7183 9.05945 22.5929 8.94551C22.4674 8.83157 22.32 8.74448 22.1597 8.68958C21.9993 8.63468 21.8295 8.61314 21.6605 8.62628V8.62628Z" fill="black"/>
</svg>
